<?xml version="1.0" encoding="iso-8859-1"?>
<!-- Uploaded to: SVG Repo, www.svgrepo.com, Generator: SVG Repo Mixer Tools -->
<svg fill="#ededed" height="800px" width="800px" version="1.1" id="Layer_1" xmlns="http://www.w3.org/2000/svg" xmlns:xlink="http://www.w3.org/1999/xlink" 
	 viewBox="0 0 512 512" xml:space="preserve">
<g>
	<g>
		<path d="M512,209.597h-47.628v-77.395h-35.721v35.721H392.93v41.674H202.419v-23.814h107.163V19.086H59.535v166.698h107.163
			v23.814H0v178.605h31.795l-19.542,97.706l35.027,7.006l20.942-104.712h86.568V316.76h202.419v71.442h86.567l20.942,104.712
			l35.027-7.006l-19.542-97.706H512V209.597z M95.256,150.062V54.807H273.86v95.256H95.256z M119.07,352.481H35.721V316.76h83.349
			V352.481z M357.209,281.039H35.721v-35.721h321.488V281.039z M476.279,352.481H392.93V316.76h83.349V352.481z M476.279,281.039
			H392.93v-35.721h83.349V281.039z"/>
	</g>
</g>
</svg>