<?xml version="1.0" standalone="no"?>
<!DOCTYPE svg PUBLIC "-//W3C//DTD SVG 20010904//EN"
 "http://www.w3.org/TR/2001/REC-SVG-20010904/DTD/svg10.dtd">
<svg version="1.0" xmlns="http://www.w3.org/2000/svg"
 width="512.000000pt" height="512.000000pt" viewBox="0 0 512.000000 512.000000"
 preserveAspectRatio="xMidYMid meet">

<g transform="translate(0.000000,512.000000) scale(0.100000,-0.100000)"
fill="#000000" stroke="none">
<path d="M1235 4695 c-340 -63 -607 -314 -697 -655 l-23 -85 0 -1445 c0 -1347
1 -1450 18 -1514 43 -168 117 -303 227 -416 139 -142 296 -226 484 -259 82
-15 2550 -15 2632 0 342 60 617 316 707 659 l22 85 0 1445 0 1445 -23 85 c-93
350 -372 605 -722 660 -104 16 -2536 12 -2625 -5z m2560 -194 c268 -32 470
-189 568 -443 l32 -83 3 -1075 c3 -1207 6 -1149 -70 -1303 -59 -118 -181 -239
-299 -295 -159 -76 -80 -72 -1472 -72 -1211 0 -1246 1 -1323 20 -134 34 -217
81 -315 179 -67 67 -95 104 -127 168 -76 154 -73 96 -70 1303 l3 1075 23 65
c90 252 306 428 562 459 93 12 2388 13 2485 2z m-2859 -3347 c83 -49 182 -90
273 -112 59 -14 202 -16 1276 -20 848 -2 1243 0 1320 8 205 21 381 100 527
238 l70 67 -4 -145 c-5 -161 -24 -236 -90 -348 -52 -90 -169 -200 -263 -249
-162 -84 -48 -78 -1485 -78 -1437 0 -1323 -6 -1485 78 -94 49 -211 159 -263
249 -66 111 -85 187 -90 348 l-4 144 74 -69 c42 -39 106 -88 144 -111z"/>
<path d="M2480 3709 c-154 -23 -276 -86 -380 -195 -157 -165 -228 -393 -217
-694 10 -274 81 -465 227 -610 130 -130 249 -179 455 -187 110 -4 144 -2 219
16 240 57 414 223 461 438 l7 33 -100 0 -100 0 -30 -65 c-60 -127 -184 -212
-345 -235 -271 -38 -491 123 -564 415 -25 101 -25 371 0 478 38 163 143 314
257 372 235 119 517 37 634 -184 20 -38 36 -76 36 -85 0 -14 15 -16 106 -16
l106 0 -7 33 c-4 17 -16 56 -26 86 -62 181 -237 333 -440 385 -77 20 -220 27
-299 15z"/>
</g>
</svg>
